<svg width="24" height="28" viewBox="0 0 24 28" fill="none" xmlns="http://www.w3.org/2000/svg">
<path d="M9.99107 15.6964C9.99107 16.7304 9.24107 17.0571 8.31964 17.0571H5.90357V14.2232H8.36786C9.36429 14.2286 9.99107 14.6411 9.99107 15.6964V15.6964ZM9.57857 11.2875C9.57857 10.3393 8.84464 10.1143 8.03036 10.1143H5.90893V12.5143H8.19643C9.00536 12.5143 9.57857 12.1607 9.57857 11.2875V11.2875ZM16.6661 12.5304C15.6857 12.5304 15.0321 13.1411 14.9679 14.1214H18.3C18.2089 13.1304 17.6946 12.5304 16.6661 12.5304ZM24 4.28571V23.1429C24 24.5625 22.8482 25.7143 21.4286 25.7143H2.57143C1.15179 25.7143 0 24.5625 0 23.1429V4.28571C0 2.86606 1.15179 1.71428 2.57143 1.71428H21.4286C22.8482 1.71428 24 2.86606 24 4.28571ZM14.5554 9.91071H18.7232V8.89821H14.5554V9.91071ZM12.2518 15.8196C12.2518 14.5286 11.6411 13.4143 10.3768 13.0554C11.2982 12.6161 11.7804 12.1071 11.7804 11.0732C11.7804 9.02678 10.2536 8.52857 8.49107 8.52857H3.64286V18.8143H8.63036C10.5 18.8036 12.2518 17.9089 12.2518 15.8196V15.8196ZM20.3571 15.0268C20.3571 12.825 19.0661 10.9875 16.7357 10.9875C14.4643 10.9875 12.9268 12.6911 12.9268 14.9304C12.9268 17.25 14.3893 18.8411 16.7357 18.8411C18.5143 18.8411 19.6661 18.0429 20.2232 16.3339H18.4179C18.2196 16.9714 17.4214 17.3036 16.8 17.3036C15.6 17.3036 14.9732 16.6018 14.9732 15.4125H20.3411C20.3464 15.2893 20.3571 15.1554 20.3571 15.0268Z" fill="black"/>
</svg>
