<svg width="24" height="28" viewBox="0 0 24 28" fill="none" xmlns="http://www.w3.org/2000/svg">
<g clip-path="url(#clip0_523_10585)">
<path d="M12 10.8568C11.4349 10.857 10.8825 11.0248 10.4128 11.3389C9.94298 11.653 9.57689 12.0993 9.36078 12.6215C9.14467 13.1437 9.08823 13.7182 9.19861 14.2724C9.30899 14.8266 9.58122 15.3357 9.98089 15.7352C10.3806 16.1347 10.8897 16.4068 11.444 16.517C11.9983 16.6271 12.5728 16.5705 13.0948 16.3542C13.6169 16.1379 14.0631 15.7716 14.3771 15.3017C14.691 14.8318 14.8586 14.2794 14.8586 13.7143C14.858 12.9564 14.5566 12.2298 14.0206 11.694C13.4846 11.1582 12.7579 10.8571 12 10.8568V10.8568ZM18.6809 8.66035C18.5354 8.2917 18.3158 7.95686 18.0355 7.67662C17.7553 7.39638 17.4204 7.17671 17.0518 7.03124C15.9268 6.58714 13.2482 6.68678 12 6.68678C10.7518 6.68678 8.07589 6.58339 6.94768 7.03124C6.57902 7.17671 6.24419 7.39638 5.96395 7.67662C5.68371 7.95686 5.46404 8.2917 5.31857 8.66035C4.875 9.78535 4.97411 12.4666 4.97411 13.7137C4.97411 14.9609 4.875 17.6389 5.32071 18.7677C5.46618 19.1363 5.68585 19.4712 5.96609 19.7514C6.24633 20.0316 6.58117 20.2513 6.94982 20.3968C8.07482 20.8409 10.7534 20.7412 12.0021 20.7412C13.2509 20.7412 15.9257 20.8446 17.0539 20.3968C17.4226 20.2513 17.7574 20.0316 18.0377 19.7514C18.3179 19.4712 18.5376 19.1363 18.683 18.7677C19.1304 17.6427 19.0275 14.9614 19.0275 13.7143C19.0275 12.4671 19.1304 9.78964 18.683 8.66089L18.6809 8.66035ZM12 18.1071C11.1312 18.1071 10.2819 17.8495 9.55946 17.3668C8.83706 16.8841 8.27401 16.198 7.94153 15.3954C7.60904 14.5927 7.52205 13.7094 7.69155 12.8573C7.86105 12.0051 8.27943 11.2224 8.89378 10.6081C9.50813 9.99371 10.2909 9.57533 11.143 9.40583C11.9951 9.23633 12.8784 9.32332 13.6811 9.65581C14.4838 9.98829 15.1698 10.5513 15.6525 11.2737C16.1352 11.9961 16.3929 12.8455 16.3929 13.7143C16.3936 14.2914 16.2804 14.8629 16.0599 15.3962C15.8394 15.9295 15.5158 16.414 15.1078 16.8221C14.6997 17.2301 14.2152 17.5537 13.6819 17.7742C13.1486 17.9947 12.5771 18.1078 12 18.1071V18.1071ZM16.5739 10.1625C16.3711 10.1626 16.1728 10.1026 16.0041 9.98995C15.8354 9.87735 15.7039 9.71725 15.6262 9.5299C15.5486 9.34255 15.5282 9.13636 15.5677 8.93743C15.6072 8.73849 15.7048 8.55574 15.8482 8.41229C15.9915 8.26884 16.1742 8.17113 16.3732 8.13152C16.5721 8.09191 16.7783 8.11219 16.9657 8.18978C17.153 8.26737 17.3132 8.39879 17.4259 8.56742C17.5386 8.73605 17.5988 8.93432 17.5988 9.13714C17.5993 9.27182 17.5733 9.40529 17.5221 9.5299C17.471 9.6545 17.3958 9.76778 17.3008 9.86324C17.2058 9.9587 17.0928 10.0345 16.9685 10.0862C16.8441 10.1379 16.7108 10.1646 16.5761 10.1646L16.5739 10.1625ZM21.4286 1.71428H2.57143C1.88944 1.71428 1.23539 1.9852 0.753154 2.46743C0.270918 2.94967 0 3.60372 0 4.28571L0 23.1429C0 23.8248 0.270918 24.4789 0.753154 24.9611C1.23539 25.4434 1.88944 25.7143 2.57143 25.7143H21.4286C22.1106 25.7143 22.7646 25.4434 23.2468 24.9611C23.7291 24.4789 24 23.8248 24 23.1429V4.28571C24 3.60372 23.7291 2.94967 23.2468 2.46743C22.7646 1.9852 22.1106 1.71428 21.4286 1.71428V1.71428ZM20.5114 17.25C20.4423 18.623 20.1289 19.8396 19.1266 20.8393C18.1243 21.8389 16.9088 22.1587 15.5373 22.2241C14.1225 22.3039 9.88071 22.3039 8.46589 22.2241C7.09286 22.155 5.88054 21.8411 4.87661 20.8393C3.87268 19.8375 3.55714 18.6204 3.49179 17.25C3.41196 15.8346 3.41196 11.5923 3.49179 10.1786C3.56089 8.80553 3.87054 7.58892 4.87661 6.58928C5.88268 5.58964 7.09821 5.27357 8.46589 5.20821C9.88071 5.12839 14.1225 5.12839 15.5373 5.20821C16.9104 5.27732 18.1264 5.59124 19.1266 6.59303C20.1268 7.59482 20.4461 8.81196 20.5114 10.185C20.5913 11.595 20.5913 15.8336 20.5114 17.25Z" fill="black"/>
</g>
<defs>
<clipPath id="clip0_523_10585">
<rect width="24" height="27.4286" fill="white"/>
</clipPath>
</defs>
</svg>
