<svg width="131" height="28" viewBox="0 0 131 28" fill="none" xmlns="http://www.w3.org/2000/svg">
<path d="M60.75 14C60.75 17.709 57.464 21.147 51.9625 23.6723C46.4826 26.1876 38.8948 27.75 30.5 27.75C22.1052 27.75 14.5174 26.1876 9.03753 23.6723C3.536 21.147 0.25 17.709 0.25 14C0.25 10.291 3.536 6.85301 9.03753 4.32771C14.5174 1.81238 22.1052 0.25 30.5 0.25C38.8948 0.25 46.4826 1.81238 51.9625 4.32771C57.464 6.85301 60.75 10.291 60.75 14Z" stroke="#D5ADAD" stroke-width="0.5"/>
<path d="M16.9261 9.0625V13H15.9205V6.45455H16.892V7.47727H16.9773C17.1307 7.14489 17.3636 6.87784 17.6761 6.67614C17.9886 6.47159 18.392 6.36932 18.8864 6.36932C19.3295 6.36932 19.7173 6.46023 20.0497 6.64205C20.3821 6.82102 20.6406 7.09375 20.8253 7.46023C21.0099 7.82386 21.1023 8.28409 21.1023 8.84091V13H20.0966V8.90909C20.0966 8.39489 19.9631 7.99432 19.696 7.70739C19.429 7.41761 19.0625 7.27273 18.5966 7.27273C18.2756 7.27273 17.9886 7.34233 17.7358 7.48153C17.4858 7.62074 17.2884 7.82386 17.1435 8.09091C16.9986 8.35795 16.9261 8.68182 16.9261 9.0625ZM24.8661 13.1534C24.4513 13.1534 24.0749 13.0753 23.7369 12.919C23.3988 12.7599 23.1303 12.5312 22.9315 12.233C22.7326 11.9318 22.6332 11.5682 22.6332 11.142C22.6332 10.767 22.707 10.4631 22.8548 10.2301C23.0025 9.99432 23.1999 9.80966 23.4471 9.67614C23.6942 9.54261 23.967 9.44318 24.2653 9.37784C24.5664 9.30966 24.869 9.25568 25.1729 9.21591C25.5707 9.16477 25.8931 9.12642 26.1403 9.10085C26.3903 9.07244 26.5721 9.02557 26.6857 8.96023C26.8022 8.89489 26.8604 8.78125 26.8604 8.61932V8.58523C26.8604 8.16477 26.7454 7.83807 26.5153 7.60511C26.288 7.37216 25.9428 7.25568 25.4798 7.25568C24.9996 7.25568 24.6232 7.3608 24.3505 7.57102C24.0778 7.78125 23.886 8.00568 23.7752 8.24432L22.8207 7.90341C22.9911 7.50568 23.2184 7.19602 23.5025 6.97443C23.7894 6.75 24.1019 6.59375 24.44 6.50568C24.7809 6.41477 25.1161 6.36932 25.4457 6.36932C25.6559 6.36932 25.8974 6.39489 26.1701 6.44602C26.4457 6.49432 26.7113 6.59517 26.967 6.74858C27.2255 6.90199 27.44 7.13352 27.6104 7.44318C27.7809 7.75284 27.8661 8.16761 27.8661 8.6875V13H26.8604V12.1136H26.8093C26.7411 12.2557 26.6275 12.4077 26.4684 12.5696C26.3093 12.7315 26.0977 12.8693 25.8335 12.983C25.5692 13.0966 25.2468 13.1534 24.8661 13.1534ZM25.0195 12.25C25.4173 12.25 25.7525 12.1719 26.0252 12.0156C26.3008 11.8594 26.5082 11.6577 26.6474 11.4105C26.7894 11.1634 26.8604 10.9034 26.8604 10.6307V9.71023C26.8178 9.76136 26.7241 9.80824 26.5792 9.85085C26.4371 9.89062 26.2724 9.92614 26.0849 9.95739C25.9002 9.9858 25.7198 10.0114 25.5437 10.0341C25.3704 10.054 25.2298 10.071 25.1218 10.0852C24.8604 10.1193 24.6161 10.1747 24.3888 10.2514C24.1644 10.3253 23.9826 10.4375 23.8434 10.5881C23.707 10.7358 23.6388 10.9375 23.6388 11.1932C23.6388 11.5426 23.7681 11.8068 24.0266 11.9858C24.288 12.1619 24.619 12.25 25.0195 12.25ZM29.7017 6.45455H30.7074V13.4773C30.7074 13.8807 30.6378 14.2301 30.4986 14.5256C30.3622 14.821 30.1548 15.0497 29.8764 15.2116C29.6009 15.3736 29.2528 15.4545 28.8324 15.4545C28.7983 15.4545 28.7642 15.4545 28.7301 15.4545C28.696 15.4545 28.6619 15.4545 28.6278 15.4545V14.517C28.6619 14.517 28.6932 14.517 28.7216 14.517C28.75 14.517 28.7812 14.517 28.8153 14.517C29.1222 14.517 29.3466 14.4261 29.4886 14.2443C29.6307 14.0653 29.7017 13.8097 29.7017 13.4773V6.45455ZM30.196 5.36364C30 5.36364 29.831 5.29688 29.6889 5.16335C29.5497 5.02983 29.4801 4.86932 29.4801 4.68182C29.4801 4.49432 29.5497 4.33381 29.6889 4.20028C29.831 4.06676 30 4 30.196 4C30.392 4 30.5597 4.06676 30.6989 4.20028C30.8409 4.33381 30.9119 4.49432 30.9119 4.68182C30.9119 4.86932 30.8409 5.02983 30.6989 5.16335C30.5597 5.29688 30.392 5.36364 30.196 5.36364Z" fill="#D87676"/>
<path d="M38.0739 19.9375V16H39.0795V22.5455H38.108V21.5227H38.0227C37.8693 21.8551 37.6364 22.1222 37.3239 22.3239C37.0114 22.5284 36.608 22.6307 36.1136 22.6307C35.6705 22.6307 35.2827 22.5398 34.9503 22.358C34.6179 22.179 34.3594 21.9062 34.1747 21.5398C33.9901 21.1761 33.8977 20.7159 33.8977 20.1591V16H34.9034V20.0909C34.9034 20.6051 35.0369 21.0057 35.304 21.2926C35.571 21.5824 35.9375 21.7273 36.4034 21.7273C36.7244 21.7273 37.0114 21.6577 37.2642 21.5185C37.5142 21.3793 37.7116 21.1761 37.8565 20.9091C38.0014 20.642 38.0739 20.3182 38.0739 19.9375ZM30.1339 15.8466C30.5487 15.8466 30.9251 15.9247 31.2631 16.081C31.6012 16.2401 31.8697 16.4688 32.0685 16.767C32.2674 17.0682 32.3668 17.4318 32.3668 17.858C32.3668 18.233 32.293 18.5369 32.1452 18.7699C31.9975 19.0057 31.8001 19.1903 31.5529 19.3239C31.3058 19.4574 31.033 19.5568 30.7347 19.6222C30.4336 19.6903 30.131 19.7443 29.8271 19.7841C29.4293 19.8352 29.1069 19.8736 28.8597 19.8991C28.6097 19.9276 28.4279 19.9744 28.3143 20.0398C28.1978 20.1051 28.1396 20.2188 28.1396 20.3807V20.4148C28.1396 20.8352 28.2546 21.1619 28.4847 21.3949C28.712 21.6278 29.0572 21.7443 29.5202 21.7443C30.0004 21.7443 30.3768 21.6392 30.6495 21.429C30.9222 21.2188 31.114 20.9943 31.2248 20.7557L32.1793 21.0966C32.0089 21.4943 31.7816 21.804 31.4975 22.0256C31.2106 22.25 30.8981 22.4063 30.56 22.4943C30.2191 22.5852 29.8839 22.6307 29.5543 22.6307C29.3441 22.6307 29.1026 22.6051 28.8299 22.554C28.5543 22.5057 28.2887 22.4048 28.033 22.2514C27.7745 22.098 27.56 21.8665 27.3896 21.5568C27.2191 21.2472 27.1339 20.8324 27.1339 20.3125V16H28.1396V16.8864H28.1907C28.2589 16.7443 28.3725 16.5923 28.5316 16.4304C28.6907 16.2685 28.9023 16.1307 29.1665 16.017C29.4308 15.9034 29.7532 15.8466 30.1339 15.8466ZM29.9805 16.75C29.5827 16.75 29.2475 16.8281 28.9748 16.9844C28.6992 17.1406 28.4918 17.3423 28.3526 17.5895C28.2106 17.8366 28.1396 18.0966 28.1396 18.3693V19.2898C28.1822 19.2386 28.2759 19.1918 28.4208 19.1491C28.5629 19.1094 28.7276 19.0739 28.9151 19.0426C29.0998 19.0142 29.2802 18.9886 29.4563 18.9659C29.6296 18.946 29.7702 18.929 29.8782 18.9148C30.1396 18.8807 30.3839 18.8253 30.6112 18.7486C30.8356 18.6747 31.0174 18.5625 31.1566 18.4119C31.293 18.2642 31.3612 18.0625 31.3612 17.8068C31.3612 17.4574 31.2319 17.1932 30.9734 17.0142C30.712 16.8381 30.381 16.75 29.9805 16.75ZM25.2983 22.5455H24.2926V15.5227C24.2926 15.1193 24.3622 14.7699 24.5014 14.4744C24.6378 14.179 24.8452 13.9503 25.1236 13.7884C25.3991 13.6264 25.7472 13.5455 26.1676 13.5455C26.2017 13.5455 26.2358 13.5455 26.2699 13.5455C26.304 13.5455 26.3381 13.5455 26.3722 13.5455V14.483C26.3381 14.483 26.3068 14.483 26.2784 14.483C26.25 14.483 26.2188 14.483 26.1847 14.483C25.8778 14.483 25.6534 14.5739 25.5114 14.7557C25.3693 14.9347 25.2983 15.1903 25.2983 15.5227V22.5455ZM24.804 23.6364C25 23.6364 25.169 23.7031 25.3111 23.8366C25.4503 23.9702 25.5199 24.1307 25.5199 24.3182C25.5199 24.5057 25.4503 24.6662 25.3111 24.7997C25.169 24.9332 25 25 24.804 25C24.608 25 24.4403 24.9332 24.3011 24.7997C24.1591 24.6662 24.0881 24.5057 24.0881 24.3182C24.0881 24.1307 24.1591 23.9702 24.3011 23.8366C24.4403 23.7031 24.608 23.6364 24.804 23.6364Z" fill="#7685D8"/>
<path d="M64.1136 4.27273V13H63.0568V4.27273H64.1136ZM65.7553 5.21023V4.27273H72.3008V5.21023H69.5565V13H68.4996V5.21023H65.7553ZM77.5412 7.92045L76.6378 8.17614C76.581 8.02557 76.4972 7.87926 76.3864 7.73722C76.2784 7.59233 76.1307 7.47301 75.9432 7.37926C75.7557 7.28551 75.5156 7.23864 75.223 7.23864C74.8224 7.23864 74.4886 7.33097 74.2216 7.51562C73.9574 7.69744 73.8253 7.92898 73.8253 8.21023C73.8253 8.46023 73.9162 8.65767 74.098 8.80256C74.2798 8.94744 74.5639 9.06818 74.9503 9.16477L75.9219 9.40341C76.5071 9.54545 76.9432 9.76278 77.2301 10.0554C77.517 10.3452 77.6605 10.7187 77.6605 11.1761C77.6605 11.5511 77.5526 11.8864 77.3366 12.1818C77.1236 12.4773 76.8253 12.7102 76.4418 12.8807C76.0582 13.0511 75.6122 13.1364 75.1037 13.1364C74.4361 13.1364 73.8835 12.9915 73.446 12.7017C73.0085 12.4119 72.7315 11.9886 72.6151 11.4318L73.5696 11.1932C73.6605 11.5455 73.8324 11.8097 74.0852 11.9858C74.3409 12.1619 74.6747 12.25 75.0866 12.25C75.5554 12.25 75.9276 12.1506 76.2031 11.9517C76.4815 11.75 76.6207 11.5085 76.6207 11.2273C76.6207 11 76.5412 10.8097 76.3821 10.6562C76.223 10.5 75.9787 10.3835 75.6491 10.3068L74.5582 10.0511C73.9588 9.90909 73.5185 9.68892 73.2372 9.39062C72.9588 9.08949 72.8196 8.71307 72.8196 8.26136C72.8196 7.89205 72.9233 7.56534 73.1307 7.28125C73.3409 6.99716 73.6264 6.77415 73.9872 6.61222C74.3509 6.45028 74.7628 6.36932 75.223 6.36932C75.8707 6.36932 76.3793 6.51136 76.7486 6.79545C77.1207 7.07955 77.3849 7.45455 77.5412 7.92045ZM81.8335 13.1364C81.2425 13.1364 80.7241 12.9957 80.2781 12.7145C79.8349 12.4332 79.4883 12.0398 79.2383 11.5341C78.9911 11.0284 78.8675 10.4375 78.8675 9.76136C78.8675 9.07955 78.9911 8.48437 79.2383 7.97585C79.4883 7.46733 79.8349 7.07244 80.2781 6.79119C80.7241 6.50994 81.2425 6.36932 81.8335 6.36932C82.4244 6.36932 82.9414 6.50994 83.3846 6.79119C83.8306 7.07244 84.1772 7.46733 84.4244 7.97585C84.6744 8.48437 84.7994 9.07955 84.7994 9.76136C84.7994 10.4375 84.6744 11.0284 84.4244 11.5341C84.1772 12.0398 83.8306 12.4332 83.3846 12.7145C82.9414 12.9957 82.4244 13.1364 81.8335 13.1364ZM81.8335 12.233C82.2823 12.233 82.6516 12.1179 82.9414 11.8878C83.2312 11.6577 83.4457 11.3551 83.5849 10.9801C83.7241 10.6051 83.7937 10.1989 83.7937 9.76136C83.7937 9.32386 83.7241 8.91619 83.5849 8.53835C83.4457 8.16051 83.2312 7.85511 82.9414 7.62216C82.6516 7.3892 82.2823 7.27273 81.8335 7.27273C81.3846 7.27273 81.0153 7.3892 80.7255 7.62216C80.4357 7.85511 80.2212 8.16051 80.082 8.53835C79.9428 8.91619 79.8732 9.32386 79.8732 9.76136C79.8732 10.1989 79.9428 10.6051 80.082 10.9801C80.2212 11.3551 80.4357 11.6577 80.7255 11.8878C81.0153 12.1179 81.3846 12.233 81.8335 12.233ZM90.4595 10.3239V6.45455H91.4652V13H90.4595V11.892H90.3913C90.2379 12.2244 89.9993 12.5071 89.6754 12.7401C89.3516 12.9702 88.9425 13.0852 88.4482 13.0852C88.0391 13.0852 87.6754 12.9957 87.3572 12.8168C87.0391 12.6349 86.7891 12.3622 86.6072 11.9986C86.4254 11.6321 86.3345 11.1705 86.3345 10.6136V6.45455H87.3402V10.5455C87.3402 11.0227 87.4737 11.4034 87.7408 11.6875C88.0107 11.9716 88.3544 12.1136 88.772 12.1136C89.022 12.1136 89.2763 12.0497 89.5348 11.9219C89.7962 11.794 90.0149 11.598 90.1911 11.3338C90.37 11.0696 90.4595 10.733 90.4595 10.3239ZM94.3129 4.27273V13H93.3072V4.27273H94.3129ZM100.28 10.3239V6.45455H101.286V13H100.28V11.892H100.212C100.058 12.2244 99.8196 12.5071 99.4957 12.7401C99.1719 12.9702 98.7628 13.0852 98.2685 13.0852C97.8594 13.0852 97.4957 12.9957 97.1776 12.8168C96.8594 12.6349 96.6094 12.3622 96.4276 11.9986C96.2457 11.6321 96.1548 11.1705 96.1548 10.6136V6.45455H97.1605V10.5455C97.1605 11.0227 97.294 11.4034 97.5611 11.6875C97.831 11.9716 98.1747 12.1136 98.5923 12.1136C98.8423 12.1136 99.0966 12.0497 99.3551 11.9219C99.6165 11.794 99.8352 11.598 100.011 11.3338C100.19 11.0696 100.28 10.733 100.28 10.3239ZM105.974 6.45455V7.30682H102.582V6.45455H105.974ZM103.571 4.88636H104.576V11.125C104.576 11.4091 104.618 11.6222 104.7 11.7642C104.785 11.9034 104.893 11.9972 105.024 12.0455C105.157 12.0909 105.298 12.1136 105.446 12.1136C105.556 12.1136 105.647 12.108 105.718 12.0966C105.789 12.0824 105.846 12.071 105.889 12.0625L106.093 12.9659C106.025 12.9915 105.93 13.017 105.808 13.0426C105.686 13.071 105.531 13.0852 105.343 13.0852C105.059 13.0852 104.781 13.0241 104.508 12.902C104.238 12.7798 104.014 12.5938 103.835 12.3438C103.659 12.0938 103.571 11.7784 103.571 11.3977V4.88636ZM107.487 13V6.45455H108.493V13H107.487ZM107.998 5.36364C107.802 5.36364 107.633 5.29688 107.491 5.16335C107.352 5.02983 107.282 4.86932 107.282 4.68182C107.282 4.49432 107.352 4.33381 107.491 4.20028C107.633 4.06676 107.802 4 107.998 4C108.194 4 108.362 4.06676 108.501 4.20028C108.643 4.33381 108.714 4.49432 108.714 4.68182C108.714 4.86932 108.643 5.02983 108.501 5.16335C108.362 5.29688 108.194 5.36364 107.998 5.36364ZM112.994 13.1364C112.403 13.1364 111.884 12.9957 111.438 12.7145C110.995 12.4332 110.648 12.0398 110.398 11.5341C110.151 11.0284 110.028 10.4375 110.028 9.76136C110.028 9.07955 110.151 8.48437 110.398 7.97585C110.648 7.46733 110.995 7.07244 111.438 6.79119C111.884 6.50994 112.403 6.36932 112.994 6.36932C113.585 6.36932 114.102 6.50994 114.545 6.79119C114.991 7.07244 115.337 7.46733 115.585 7.97585C115.835 8.48437 115.96 9.07955 115.96 9.76136C115.96 10.4375 115.835 11.0284 115.585 11.5341C115.337 12.0398 114.991 12.4332 114.545 12.7145C114.102 12.9957 113.585 13.1364 112.994 13.1364ZM112.994 12.233C113.442 12.233 113.812 12.1179 114.102 11.8878C114.391 11.6577 114.606 11.3551 114.745 10.9801C114.884 10.6051 114.954 10.1989 114.954 9.76136C114.954 9.32386 114.884 8.91619 114.745 8.53835C114.606 8.16051 114.391 7.85511 114.102 7.62216C113.812 7.3892 113.442 7.27273 112.994 7.27273C112.545 7.27273 112.175 7.3892 111.886 7.62216C111.596 7.85511 111.381 8.16051 111.242 8.53835C111.103 8.91619 111.033 9.32386 111.033 9.76136C111.033 10.1989 111.103 10.6051 111.242 10.9801C111.381 11.3551 111.596 11.6577 111.886 11.8878C112.175 12.1179 112.545 12.233 112.994 12.233ZM118.5 9.0625V13H117.495V6.45455H118.466V7.47727H118.551C118.705 7.14489 118.938 6.87784 119.25 6.67614C119.563 6.47159 119.966 6.36932 120.461 6.36932C120.904 6.36932 121.292 6.46023 121.624 6.64205C121.956 6.82102 122.215 7.09375 122.4 7.46023C122.584 7.82386 122.676 8.28409 122.676 8.84091V13H121.671V8.90909C121.671 8.39489 121.537 7.99432 121.27 7.70739C121.003 7.41761 120.637 7.27273 120.171 7.27273C119.85 7.27273 119.563 7.34233 119.31 7.48153C119.06 7.62074 118.863 7.82386 118.718 8.09091C118.573 8.35795 118.5 8.68182 118.5 9.0625ZM129.151 7.92045L128.247 8.17614C128.19 8.02557 128.107 7.87926 127.996 7.73722C127.888 7.59233 127.74 7.47301 127.553 7.37926C127.365 7.28551 127.125 7.23864 126.832 7.23864C126.432 7.23864 126.098 7.33097 125.831 7.51562C125.567 7.69744 125.435 7.92898 125.435 8.21023C125.435 8.46023 125.526 8.65767 125.707 8.80256C125.889 8.94744 126.173 9.06818 126.56 9.16477L127.531 9.40341C128.116 9.54545 128.553 9.76278 128.839 10.0554C129.126 10.3452 129.27 10.7187 129.27 11.1761C129.27 11.5511 129.162 11.8864 128.946 12.1818C128.733 12.4773 128.435 12.7102 128.051 12.8807C127.668 13.0511 127.222 13.1364 126.713 13.1364C126.045 13.1364 125.493 12.9915 125.055 12.7017C124.618 12.4119 124.341 11.9886 124.224 11.4318L125.179 11.1932C125.27 11.5455 125.442 11.8097 125.695 11.9858C125.95 12.1619 126.284 12.25 126.696 12.25C127.165 12.25 127.537 12.1506 127.812 11.9517C128.091 11.75 128.23 11.5085 128.23 11.2273C128.23 11 128.151 10.8097 127.991 10.6562C127.832 10.5 127.588 10.3835 127.259 10.3068L126.168 10.0511C125.568 9.90909 125.128 9.68892 124.847 9.39062C124.568 9.08949 124.429 8.71307 124.429 8.26136C124.429 7.89205 124.533 7.56534 124.74 7.28125C124.95 6.99716 125.236 6.77415 125.597 6.61222C125.96 6.45028 126.372 6.36932 126.832 6.36932C127.48 6.36932 127.989 6.51136 128.358 6.79545C128.73 7.07955 128.994 7.45455 129.151 7.92045Z" fill="#D87676"/>
<path d="M63.0568 25V16.2727H68.2898V17.2102H64.1136V20.1591H67.8977V21.0966H64.1136V25H63.0568ZM69.8931 25V18.4545H70.8647V19.4432H70.9329C71.0522 19.1193 71.2681 18.8565 71.5806 18.6548C71.8931 18.4531 72.2454 18.3523 72.6374 18.3523C72.7113 18.3523 72.8036 18.3537 72.9144 18.3565C73.0252 18.3594 73.109 18.3636 73.1658 18.3693V19.392C73.1317 19.3835 73.0536 19.3707 72.9315 19.3537C72.8121 19.3338 72.6857 19.3239 72.5522 19.3239C72.234 19.3239 71.9499 19.3906 71.6999 19.5241C71.4528 19.6548 71.2567 19.8366 71.1119 20.0696C70.9698 20.2997 70.8988 20.5625 70.8988 20.858V25H69.8931ZM76.8178 25.1364C76.2269 25.1364 75.7085 24.9957 75.2624 24.7145C74.8192 24.4332 74.4727 24.0398 74.2227 23.5341C73.9755 23.0284 73.8519 22.4375 73.8519 21.7614C73.8519 21.0795 73.9755 20.4844 74.2227 19.9759C74.4727 19.4673 74.8192 19.0724 75.2624 18.7912C75.7085 18.5099 76.2269 18.3693 76.8178 18.3693C77.4087 18.3693 77.9258 18.5099 78.369 18.7912C78.815 19.0724 79.1616 19.4673 79.4087 19.9759C79.6587 20.4844 79.7837 21.0795 79.7837 21.7614C79.7837 22.4375 79.6587 23.0284 79.4087 23.5341C79.1616 24.0398 78.815 24.4332 78.369 24.7145C77.9258 24.9957 77.4087 25.1364 76.8178 25.1364ZM76.8178 24.233C77.2667 24.233 77.636 24.1179 77.9258 23.8878C78.2156 23.6577 78.43 23.3551 78.5692 22.9801C78.7085 22.6051 78.7781 22.1989 78.7781 21.7614C78.7781 21.3239 78.7085 20.9162 78.5692 20.5384C78.43 20.1605 78.2156 19.8551 77.9258 19.6222C77.636 19.3892 77.2667 19.2727 76.8178 19.2727C76.369 19.2727 75.9996 19.3892 75.7099 19.6222C75.4201 19.8551 75.2056 20.1605 75.0664 20.5384C74.9272 20.9162 74.8576 21.3239 74.8576 21.7614C74.8576 22.1989 74.9272 22.6051 75.0664 22.9801C75.2056 23.3551 75.4201 23.6577 75.7099 23.8878C75.9996 24.1179 76.369 24.233 76.8178 24.233ZM81.3189 25V18.4545H82.2905V19.4773H82.3757C82.5121 19.1278 82.7322 18.8565 83.0362 18.6634C83.3402 18.4673 83.7053 18.3693 84.1314 18.3693C84.5632 18.3693 84.9226 18.4673 85.2095 18.6634C85.4993 18.8565 85.7251 19.1278 85.8871 19.4773H85.9553C86.1229 19.1392 86.3743 18.8707 86.7095 18.6719C87.0447 18.4702 87.4467 18.3693 87.9155 18.3693C88.5007 18.3693 88.9794 18.5526 89.3516 18.919C89.7237 19.2827 89.9098 19.8494 89.9098 20.6193V25H88.9041V20.6193C88.9041 20.1364 88.772 19.7912 88.5078 19.5838C88.2436 19.3764 87.9325 19.2727 87.5746 19.2727C87.1143 19.2727 86.7578 19.4119 86.505 19.6903C86.2521 19.9659 86.1257 20.3153 86.1257 20.7386V25H85.103V20.517C85.103 20.1449 84.9822 19.8452 84.7408 19.6179C84.4993 19.3878 84.1882 19.2727 83.8075 19.2727C83.5462 19.2727 83.3018 19.3423 83.0746 19.4815C82.8501 19.6207 82.6683 19.8139 82.5291 20.0611C82.3928 20.3054 82.3246 20.5881 82.3246 20.9091V25H81.3189ZM100.033 18.4545C99.9815 18.0227 99.7741 17.6875 99.4105 17.4489C99.0469 17.2102 98.6009 17.0909 98.0724 17.0909C97.6861 17.0909 97.348 17.1534 97.0582 17.2784C96.7713 17.4034 96.5469 17.5753 96.3849 17.794C96.2259 18.0128 96.1463 18.2614 96.1463 18.5398C96.1463 18.7727 96.2017 18.973 96.3125 19.1406C96.4261 19.3054 96.571 19.4432 96.7472 19.554C96.9233 19.6619 97.108 19.7514 97.3011 19.8224C97.4943 19.8906 97.6719 19.946 97.8338 19.9886L98.7202 20.2273C98.9474 20.2869 99.2003 20.3693 99.4787 20.4744C99.7599 20.5795 100.028 20.723 100.284 20.9048C100.543 21.0838 100.756 21.3139 100.923 21.5952C101.091 21.8764 101.175 22.2216 101.175 22.6307C101.175 23.1023 101.051 23.5284 100.804 23.9091C100.56 24.2898 100.202 24.5923 99.7301 24.8168C99.2614 25.0412 98.6918 25.1534 98.0213 25.1534C97.3963 25.1534 96.8551 25.0526 96.3977 24.8509C95.9432 24.6491 95.5852 24.3679 95.3239 24.0071C95.0653 23.6463 94.919 23.2273 94.8849 22.75H95.9759C96.0043 23.0795 96.1151 23.3523 96.3082 23.5682C96.5043 23.7812 96.7514 23.9403 97.0497 24.0455C97.3509 24.1477 97.6747 24.1989 98.0213 24.1989C98.4247 24.1989 98.7869 24.1335 99.108 24.0028C99.429 23.8693 99.6832 23.6847 99.8707 23.4489C100.058 23.2102 100.152 22.9318 100.152 22.6136C100.152 22.3239 100.071 22.0881 99.9091 21.9062C99.7472 21.7244 99.5341 21.5767 99.2699 21.4631C99.0057 21.3494 98.7202 21.25 98.4134 21.1648L97.3395 20.858C96.6577 20.6619 96.1179 20.3821 95.7202 20.0185C95.3224 19.6548 95.1236 19.179 95.1236 18.5909C95.1236 18.1023 95.2557 17.6761 95.5199 17.3125C95.7869 16.946 96.1449 16.6619 96.5938 16.4602C97.0455 16.2557 97.5497 16.1534 98.1065 16.1534C98.669 16.1534 99.169 16.2543 99.6065 16.456C100.044 16.6548 100.391 16.9276 100.646 17.2741C100.905 17.6207 101.041 18.0142 101.055 18.4545H100.033ZM105.52 25.1364C104.89 25.1364 104.346 24.9972 103.888 24.7188C103.434 24.4375 103.083 24.0455 102.836 23.5426C102.591 23.0369 102.469 22.4489 102.469 21.7784C102.469 21.108 102.591 20.517 102.836 20.0057C103.083 19.4915 103.426 19.0909 103.867 18.804C104.31 18.5142 104.827 18.3693 105.418 18.3693C105.759 18.3693 106.096 18.4261 106.428 18.5398C106.76 18.6534 107.063 18.8381 107.336 19.0938C107.608 19.3466 107.826 19.6818 107.988 20.0994C108.15 20.517 108.23 21.0312 108.23 21.642V22.0682H103.185V21.1989H107.208C107.208 20.8295 107.134 20.5 106.986 20.2102C106.841 19.9205 106.634 19.6918 106.364 19.5241C106.097 19.3565 105.782 19.2727 105.418 19.2727C105.017 19.2727 104.671 19.3722 104.378 19.571C104.088 19.767 103.865 20.0227 103.709 20.3381C103.553 20.6534 103.475 20.9915 103.475 21.3523V21.9318C103.475 22.4261 103.56 22.8452 103.73 23.1889C103.904 23.5298 104.144 23.7898 104.451 23.9688C104.757 24.1449 105.114 24.233 105.52 24.233C105.784 24.233 106.023 24.196 106.236 24.1222C106.452 24.0455 106.638 23.9318 106.794 23.7812C106.951 23.6278 107.071 23.4375 107.157 23.2102L108.128 23.483C108.026 23.8125 107.854 24.1023 107.613 24.3523C107.371 24.5994 107.073 24.7926 106.718 24.9318C106.363 25.0682 105.963 25.1364 105.52 25.1364ZM109.76 25V18.4545H110.732V19.4432H110.8C110.919 19.1193 111.135 18.8565 111.448 18.6548C111.76 18.4531 112.113 18.3523 112.505 18.3523C112.578 18.3523 112.671 18.3537 112.782 18.3565C112.892 18.3594 112.976 18.3636 113.033 18.3693V19.392C112.999 19.3835 112.921 19.3707 112.799 19.3537C112.679 19.3338 112.553 19.3239 112.419 19.3239C112.101 19.3239 111.817 19.3906 111.567 19.5241C111.32 19.6548 111.124 19.8366 110.979 20.0696C110.837 20.2997 110.766 20.5625 110.766 20.858V25H109.76ZM114.362 25V16.2727H115.367V19.4943H115.452C115.526 19.3807 115.629 19.2358 115.759 19.0597C115.893 18.8807 116.083 18.7216 116.33 18.5824C116.58 18.4403 116.918 18.3693 117.344 18.3693C117.896 18.3693 118.381 18.5071 118.802 18.7827C119.222 19.0582 119.55 19.4489 119.786 19.9545C120.022 20.4602 120.14 21.0568 120.14 21.7443C120.14 22.4375 120.022 23.0384 119.786 23.5469C119.55 24.0526 119.224 24.4446 118.806 24.723C118.388 24.9986 117.907 25.1364 117.362 25.1364C116.941 25.1364 116.604 25.0668 116.352 24.9276C116.099 24.7855 115.904 24.625 115.768 24.446C115.631 24.2642 115.526 24.1136 115.452 23.9943H115.333V25H114.362ZM115.35 21.7273C115.35 22.2216 115.423 22.6577 115.567 23.0355C115.712 23.4105 115.924 23.7045 116.202 23.9176C116.481 24.1278 116.822 24.233 117.225 24.233C117.646 24.233 117.996 24.1222 118.278 23.9006C118.562 23.6761 118.775 23.375 118.917 22.9972C119.062 22.6165 119.134 22.1932 119.134 21.7273C119.134 21.267 119.063 20.8523 118.921 20.483C118.782 20.1108 118.57 19.8168 118.286 19.6009C118.005 19.3821 117.651 19.2727 117.225 19.2727C116.816 19.2727 116.472 19.3764 116.194 19.5838C115.915 19.7884 115.705 20.0753 115.563 20.4446C115.421 20.8111 115.35 21.2386 115.35 21.7273ZM121.678 25V18.4545H122.684V25H121.678ZM122.19 17.3636C121.994 17.3636 121.825 17.2969 121.683 17.1634C121.543 17.0298 121.474 16.8693 121.474 16.6818C121.474 16.4943 121.543 16.3338 121.683 16.2003C121.825 16.0668 121.994 16 122.19 16C122.386 16 122.553 16.0668 122.692 16.2003C122.835 16.3338 122.906 16.4943 122.906 16.6818C122.906 16.8693 122.835 17.0298 122.692 17.1634C122.553 17.2969 122.386 17.3636 122.19 17.3636ZM126.452 25.1534C126.037 25.1534 125.661 25.0753 125.323 24.919C124.985 24.7599 124.716 24.5312 124.517 24.233C124.319 23.9318 124.219 23.5682 124.219 23.142C124.219 22.767 124.293 22.4631 124.441 22.2301C124.588 21.9943 124.786 21.8097 125.033 21.6761C125.28 21.5426 125.553 21.4432 125.851 21.3778C126.152 21.3097 126.455 21.2557 126.759 21.2159C127.157 21.1648 127.479 21.1264 127.726 21.1009C127.976 21.0724 128.158 21.0256 128.272 20.9602C128.388 20.8949 128.446 20.7812 128.446 20.6193V20.5852C128.446 20.1648 128.331 19.8381 128.101 19.6051C127.874 19.3722 127.529 19.2557 127.066 19.2557C126.586 19.2557 126.209 19.3608 125.936 19.571C125.664 19.7812 125.472 20.0057 125.361 20.2443L124.407 19.9034C124.577 19.5057 124.804 19.196 125.088 18.9744C125.375 18.75 125.688 18.5937 126.026 18.5057C126.367 18.4148 126.702 18.3693 127.032 18.3693C127.242 18.3693 127.483 18.3949 127.756 18.446C128.032 18.4943 128.297 18.5952 128.553 18.7486C128.811 18.902 129.026 19.1335 129.196 19.4432C129.367 19.7528 129.452 20.1676 129.452 20.6875V25H128.446V24.1136H128.395C128.327 24.2557 128.213 24.4077 128.054 24.5696C127.895 24.7315 127.684 24.8693 127.419 24.983C127.155 25.0966 126.833 25.1534 126.452 25.1534ZM126.605 24.25C127.003 24.25 127.338 24.1719 127.611 24.0156C127.887 23.8594 128.094 23.6577 128.233 23.4105C128.375 23.1634 128.446 22.9034 128.446 22.6307V21.7102C128.404 21.7614 128.31 21.8082 128.165 21.8509C128.023 21.8906 127.858 21.9261 127.671 21.9574C127.486 21.9858 127.306 22.0114 127.13 22.0341C126.956 22.054 126.816 22.071 126.708 22.0852C126.446 22.1193 126.202 22.1747 125.975 22.2514C125.75 22.3253 125.569 22.4375 125.429 22.5881C125.293 22.7358 125.225 22.9375 125.225 23.1932C125.225 23.5426 125.354 23.8068 125.613 23.9858C125.874 24.1619 126.205 24.25 126.605 24.25Z" fill="#7685D8"/>
</svg>
