<svg width="24" height="28" viewBox="0 0 24 28" fill="none" xmlns="http://www.w3.org/2000/svg">
<path d="M21.4286 1.71429H2.57143C1.15179 1.71429 0 2.86607 0 4.28571V23.1429C0 24.5625 1.15179 25.7143 2.57143 25.7143H21.4286C22.8482 25.7143 24 24.5625 24 23.1429V4.28571C24 2.86607 22.8482 1.71429 21.4286 1.71429ZM18.8089 10.2214C18.8196 10.3714 18.8196 10.5268 18.8196 10.6768C18.8196 15.3214 15.2839 20.6732 8.82321 20.6732C6.83036 20.6732 4.98214 20.0946 3.42857 19.0982C3.7125 19.1304 3.98571 19.1411 4.275 19.1411C5.91964 19.1411 7.43036 18.5839 8.63571 17.6411C7.09286 17.6089 5.79643 16.5964 5.35179 15.2036C5.89286 15.2839 6.38036 15.2839 6.9375 15.1393C5.33036 14.8125 4.125 13.3982 4.125 11.6893V11.6464C4.59107 11.9089 5.1375 12.0696 5.71071 12.0911C5.2288 11.7705 4.83374 11.3356 4.56079 10.8253C4.28784 10.3149 4.14548 9.74486 4.14643 9.16607C4.14643 8.5125 4.31786 7.9125 4.62321 7.39286C6.35357 9.525 8.95179 10.9179 11.8661 11.0679C11.3679 8.68393 13.1518 6.75 15.2946 6.75C16.3071 6.75 17.2179 7.17321 17.8607 7.85893C18.6536 7.70893 19.4143 7.41429 20.0893 7.0125C19.8268 7.82679 19.275 8.5125 18.5464 8.94643C19.2536 8.87143 19.9393 8.67322 20.5714 8.4C20.0946 9.10179 19.4946 9.72322 18.8089 10.2214Z" fill="black"/>
</svg>
